<svg width="512" height="512" viewBox="0 0 512 512" fill="none" xmlns="http://www.w3.org/2000/svg">
<path d="M288.664 30C291.411 30 293.814 30.8334 295.874 32.501C297.934 34.1685 299.062 36.2778 299.258 38.8281L307.497 92.9736C317.11 96.1125 325.938 99.7425 333.981 103.862L375.769 72.375C377.534 70.6095 379.888 69.7266 382.831 69.7266C385.381 69.7266 387.833 70.7073 390.188 72.6689C415.495 96.0144 431.68 112.69 438.742 122.695C440.115 124.265 440.802 126.423 440.802 129.169C440.802 131.523 440.018 133.78 438.448 135.938C435.506 140.057 430.503 146.581 423.44 155.507C416.378 164.433 411.081 171.348 407.55 176.253C412.65 186.062 416.672 195.674 419.614 205.091L473.466 213.331C476.016 213.723 478.076 214.949 479.646 217.009C481.215 219.069 482 221.374 482 223.925V289.253C482 291.607 481.215 293.863 479.646 296.021C478.076 298.178 476.115 299.454 473.761 299.847L419.32 308.086C415.593 318.68 411.767 327.606 407.844 334.864C414.71 344.673 425.206 358.21 439.331 375.474C441.293 377.828 442.273 380.281 442.273 382.831C442.273 385.381 441.39 387.637 439.625 389.599C434.328 396.857 424.617 407.451 410.492 421.38C396.368 435.308 387.147 442.273 382.831 442.273C380.477 442.273 377.926 441.391 375.18 439.625L334.57 407.844C325.938 412.356 317.012 416.084 307.792 419.026C304.653 445.707 301.808 463.952 299.258 473.761C297.884 479.254 294.353 482 288.664 482H223.336C220.589 482 218.186 481.167 216.126 479.499C214.066 477.831 212.938 475.722 212.742 473.172L204.503 419.026C194.89 415.887 186.062 412.257 178.019 408.138L136.526 439.625C134.565 441.391 132.112 442.273 129.169 442.273C126.423 442.273 123.97 441.194 121.812 439.036C97.0938 416.672 80.9088 400.192 73.2578 389.599C71.8847 387.637 71.1983 385.381 71.1982 382.831C71.1982 380.477 71.9824 378.22 73.5518 376.062C76.4945 371.943 81.4971 365.419 88.5596 356.493C95.6221 347.567 100.919 340.652 104.45 335.747C99.1534 325.938 95.1322 316.227 92.3857 306.614L38.5342 298.669C35.984 298.277 33.9239 297.051 32.3545 294.991C30.785 292.931 30 290.626 30 288.075V222.747C30.0001 220.393 30.7851 218.137 32.3545 215.979C33.9239 213.822 35.7873 212.546 37.9453 212.153L92.6797 203.914C95.4262 194.89 99.2517 185.865 104.156 176.841C96.309 165.659 85.813 152.122 72.6689 136.231C70.7073 133.877 69.7266 131.523 69.7266 129.169C69.7267 127.207 70.6096 124.951 72.375 122.401C77.4757 115.339 87.1373 104.794 101.36 90.7666C115.583 76.74 124.853 69.7269 129.169 69.7266C131.719 69.7266 134.27 70.7072 136.82 72.6689L177.43 104.156C186.062 99.6441 194.988 95.9163 204.208 92.9736C207.347 66.2932 210.192 48.0483 212.742 38.2393C214.116 32.7464 217.647 30 223.336 30H288.664ZM256 114C177.576 114 114 177.576 114 256C114 334.424 177.576 398 256 398C334.424 398 398 334.424 398 256C398 177.576 334.424 114 256 114Z" fill="currentColor"/>
<path d="M281.865 141C335.521 151.959 375.888 199.426 375.888 256.32C375.887 313.214 335.52 360.679 281.865 371.639V343.73C320.384 333.321 348.725 298.131 348.726 256.32C348.726 214.51 320.385 179.318 281.865 168.908V141ZM255.398 360.792L193.413 296.021H137V216.624H193.413L255.398 152.549V360.792ZM281.865 205.102C301.192 214.052 314.599 233.62 314.599 256.319C314.598 279.018 301.192 298.585 281.865 307.535V205.102Z" fill="currentColor"/>
</svg>
